<mxfile host="app.diagrams.net" modified="2021-06-07T22:14:42.034Z" agent="5.0 (Macintosh; Intel Mac OS X 10_15_7) AppleWebKit/605.1.15 (KHTML, like Gecko) Version/14.1 Safari/605.1.15" etag="a-ghHi5pF-LsphlRwD37" version="14.6.13" type="github">
  <diagram id="cuen1_z_6JRobeSPJKux" name="Page-1">
    <mxGraphModel dx="1113" dy="759" grid="1" gridSize="10" guides="1" tooltips="1" connect="1" arrows="1" fold="1" page="1" pageScale="1" pageWidth="980" pageHeight="1390" math="0" shadow="0">
      <root>
        <mxCell id="0" />
        <mxCell id="1" parent="0" />
        <mxCell id="oi3M1zB1Oa0CDW2oKUUC-1" value="&lt;span&gt;&lt;font color=&quot;#000000&quot;&gt;Start&lt;/font&gt;&lt;/span&gt;" style="rounded=1;whiteSpace=wrap;html=1;labelBackgroundColor=none;labelBorderColor=none;fontColor=#3399FF;gradientDirection=south;fillColor=#5FA6ED;" vertex="1" parent="1">
          <mxGeometry x="360" y="40" width="120" height="70" as="geometry" />
        </mxCell>
        <mxCell id="oi3M1zB1Oa0CDW2oKUUC-2" value="" style="endArrow=classic;html=1;exitX=0.5;exitY=1;exitDx=0;exitDy=0;" edge="1" parent="1" source="oi3M1zB1Oa0CDW2oKUUC-1">
          <mxGeometry width="50" height="50" relative="1" as="geometry">
            <mxPoint x="390" y="220" as="sourcePoint" />
            <mxPoint x="420" y="160" as="targetPoint" />
          </mxGeometry>
        </mxCell>
        <mxCell id="oi3M1zB1Oa0CDW2oKUUC-3" value="Computer kiest één woord uit de woordenlijst." style="rounded=0;whiteSpace=wrap;html=1;fillColor=#E6B8E6;" vertex="1" parent="1">
          <mxGeometry x="360" y="160" width="120" height="70" as="geometry" />
        </mxCell>
        <mxCell id="oi3M1zB1Oa0CDW2oKUUC-4" value="Lijst met woorden waaruit gekozen wordt." style="shape=parallelogram;perimeter=parallelogramPerimeter;whiteSpace=wrap;html=1;fixedSize=1;fillColor=#EDBE8E;" vertex="1" parent="1">
          <mxGeometry x="560" y="160" width="180" height="70" as="geometry" />
        </mxCell>
        <mxCell id="oi3M1zB1Oa0CDW2oKUUC-5" value="" style="endArrow=classic;html=1;exitX=0;exitY=0.5;exitDx=0;exitDy=0;entryX=1;entryY=0.5;entryDx=0;entryDy=0;" edge="1" parent="1" source="oi3M1zB1Oa0CDW2oKUUC-4" target="oi3M1zB1Oa0CDW2oKUUC-3">
          <mxGeometry width="50" height="50" relative="1" as="geometry">
            <mxPoint x="390" y="220" as="sourcePoint" />
            <mxPoint x="440" y="170" as="targetPoint" />
          </mxGeometry>
        </mxCell>
        <mxCell id="oi3M1zB1Oa0CDW2oKUUC-6" value="&lt;font style=&quot;font-size: 12px&quot;&gt;Computer zet streepjes neer. Elk streepje staat voor één letter van het woord.&lt;/font&gt;" style="rounded=0;whiteSpace=wrap;html=1;fillColor=#E6B8E6;" vertex="1" parent="1">
          <mxGeometry x="360" y="280" width="120" height="70" as="geometry" />
        </mxCell>
        <mxCell id="oi3M1zB1Oa0CDW2oKUUC-7" value="" style="endArrow=classic;html=1;exitX=0.5;exitY=1;exitDx=0;exitDy=0;" edge="1" parent="1">
          <mxGeometry width="50" height="50" relative="1" as="geometry">
            <mxPoint x="419.5" y="230" as="sourcePoint" />
            <mxPoint x="419.5" y="280" as="targetPoint" />
          </mxGeometry>
        </mxCell>
        <mxCell id="oi3M1zB1Oa0CDW2oKUUC-8" value="Speler kiest een letter uit het alfabet." style="rounded=0;whiteSpace=wrap;html=1;fillColor=#E6B8E6;" vertex="1" parent="1">
          <mxGeometry x="360" y="400" width="120" height="70" as="geometry" />
        </mxCell>
        <mxCell id="oi3M1zB1Oa0CDW2oKUUC-9" value="" style="endArrow=classic;html=1;exitX=0.5;exitY=1;exitDx=0;exitDy=0;" edge="1" parent="1">
          <mxGeometry width="50" height="50" relative="1" as="geometry">
            <mxPoint x="419.5" y="350" as="sourcePoint" />
            <mxPoint x="419.5" y="400" as="targetPoint" />
          </mxGeometry>
        </mxCell>
        <mxCell id="oi3M1zB1Oa0CDW2oKUUC-10" value="Is de letter goed?" style="rhombus;whiteSpace=wrap;html=1;fillColor=#FFF08C;" vertex="1" parent="1">
          <mxGeometry x="360" y="520" width="120" height="120" as="geometry" />
        </mxCell>
        <mxCell id="oi3M1zB1Oa0CDW2oKUUC-14" value="" style="endArrow=classic;html=1;exitX=0.5;exitY=1;exitDx=0;exitDy=0;" edge="1" parent="1">
          <mxGeometry width="50" height="50" relative="1" as="geometry">
            <mxPoint x="419.5" y="470" as="sourcePoint" />
            <mxPoint x="419.5" y="520" as="targetPoint" />
          </mxGeometry>
        </mxCell>
        <mxCell id="oi3M1zB1Oa0CDW2oKUUC-16" value="&amp;nbsp;Nee&amp;nbsp;" style="endArrow=classic;html=1;exitX=0.5;exitY=1;exitDx=0;exitDy=0;entryX=1;entryY=0.5;entryDx=0;entryDy=0;" edge="1" parent="1" target="oi3M1zB1Oa0CDW2oKUUC-22">
          <mxGeometry x="-0.1429" width="50" height="50" relative="1" as="geometry">
            <mxPoint x="360" y="579.9999999999998" as="sourcePoint" />
            <mxPoint x="310" y="580" as="targetPoint" />
            <mxPoint as="offset" />
          </mxGeometry>
        </mxCell>
        <mxCell id="oi3M1zB1Oa0CDW2oKUUC-17" value="&amp;nbsp;Ja&amp;nbsp;" style="endArrow=classic;html=1;exitX=0.5;exitY=1;exitDx=0;exitDy=0;entryX=0;entryY=0.5;entryDx=0;entryDy=0;" edge="1" parent="1" target="oi3M1zB1Oa0CDW2oKUUC-21">
          <mxGeometry x="-0.1429" width="50" height="50" relative="1" as="geometry">
            <mxPoint x="480" y="579.9999999999998" as="sourcePoint" />
            <mxPoint x="530" y="580" as="targetPoint" />
            <mxPoint as="offset" />
          </mxGeometry>
        </mxCell>
        <mxCell id="oi3M1zB1Oa0CDW2oKUUC-21" value="&lt;font style=&quot;font-size: 12px&quot;&gt;Computer zet de gekozen letter op de goede plek in het woord.&lt;/font&gt;" style="rounded=0;whiteSpace=wrap;html=1;fontStyle=0;fillColor=#E6B8E6;" vertex="1" parent="1">
          <mxGeometry x="550" y="545" width="120" height="70" as="geometry" />
        </mxCell>
        <mxCell id="oi3M1zB1Oa0CDW2oKUUC-22" value="&lt;font style=&quot;font-size: 12px&quot;&gt;Er wordt een deel van het poppetje (erbij) getekend. De gekozen letter wordt onderaan weergegeven.&lt;/font&gt;" style="rounded=0;whiteSpace=wrap;html=1;fillColor=#E6B8E6;" vertex="1" parent="1">
          <mxGeometry x="170" y="530" width="120" height="100" as="geometry" />
        </mxCell>
        <mxCell id="oi3M1zB1Oa0CDW2oKUUC-24" value="" style="endArrow=classic;html=1;exitX=0.5;exitY=1;exitDx=0;exitDy=0;" edge="1" parent="1">
          <mxGeometry width="50" height="50" relative="1" as="geometry">
            <mxPoint x="650" y="579.4999999999998" as="sourcePoint" />
            <mxPoint x="700" y="579.5" as="targetPoint" />
          </mxGeometry>
        </mxCell>
        <mxCell id="oi3M1zB1Oa0CDW2oKUUC-25" value="&lt;div&gt;Zijn alle letters geraden? En dus het woord compleet?&lt;/div&gt;" style="rhombus;whiteSpace=wrap;html=1;align=center;fillColor=#FFF08C;" vertex="1" parent="1">
          <mxGeometry x="700" y="510" width="130" height="135" as="geometry" />
        </mxCell>
        <mxCell id="oi3M1zB1Oa0CDW2oKUUC-26" value="&amp;nbsp;Nee&amp;nbsp;" style="endArrow=classic;html=1;exitX=0.5;exitY=0;exitDx=0;exitDy=0;entryX=1;entryY=0.5;entryDx=0;entryDy=0;" edge="1" parent="1" source="oi3M1zB1Oa0CDW2oKUUC-25" target="oi3M1zB1Oa0CDW2oKUUC-8">
          <mxGeometry x="0.0002" width="50" height="50" relative="1" as="geometry">
            <mxPoint x="765" y="500" as="sourcePoint" />
            <mxPoint x="765" y="450" as="targetPoint" />
            <Array as="points">
              <mxPoint x="765" y="435" />
            </Array>
            <mxPoint as="offset" />
          </mxGeometry>
        </mxCell>
        <mxCell id="oi3M1zB1Oa0CDW2oKUUC-27" value="&amp;nbsp;Ja&amp;nbsp;" style="endArrow=classic;html=1;entryX=0.5;entryY=0;entryDx=0;entryDy=0;" edge="1" parent="1" target="oi3M1zB1Oa0CDW2oKUUC-31">
          <mxGeometry width="50" height="50" relative="1" as="geometry">
            <mxPoint x="764.5" y="645" as="sourcePoint" />
            <mxPoint x="765" y="740" as="targetPoint" />
          </mxGeometry>
        </mxCell>
        <mxCell id="oi3M1zB1Oa0CDW2oKUUC-29" value="Nog een keer &lt;br&gt;spelen?" style="rhombus;whiteSpace=wrap;html=1;fillColor=#FFF08C;" vertex="1" parent="1">
          <mxGeometry x="360" y="720" width="120" height="120" as="geometry" />
        </mxCell>
        <mxCell id="oi3M1zB1Oa0CDW2oKUUC-31" value="Speler heeft gewonnen!!" style="rounded=0;whiteSpace=wrap;html=1;fillColor=#E6B8E6;" vertex="1" parent="1">
          <mxGeometry x="705" y="745" width="120" height="70" as="geometry" />
        </mxCell>
        <mxCell id="oi3M1zB1Oa0CDW2oKUUC-32" value="" style="endArrow=classic;html=1;" edge="1" parent="1" target="oi3M1zB1Oa0CDW2oKUUC-29">
          <mxGeometry width="50" height="50" relative="1" as="geometry">
            <mxPoint x="705" y="780" as="sourcePoint" />
            <mxPoint x="755" y="730" as="targetPoint" />
          </mxGeometry>
        </mxCell>
        <mxCell id="oi3M1zB1Oa0CDW2oKUUC-33" value="Einde!" style="ellipse;whiteSpace=wrap;html=1;fillColor=#5FA6ED;" vertex="1" parent="1">
          <mxGeometry x="200" y="870" width="90" height="60" as="geometry" />
        </mxCell>
        <mxCell id="oi3M1zB1Oa0CDW2oKUUC-34" value="&amp;nbsp;Nee&amp;nbsp;" style="endArrow=classic;html=1;entryX=0.5;entryY=0;entryDx=0;entryDy=0;" edge="1" parent="1" target="oi3M1zB1Oa0CDW2oKUUC-33">
          <mxGeometry x="-0.3171" width="50" height="50" relative="1" as="geometry">
            <mxPoint x="390" y="810" as="sourcePoint" />
            <mxPoint x="440" y="760" as="targetPoint" />
            <Array as="points">
              <mxPoint x="245" y="810" />
            </Array>
            <mxPoint as="offset" />
          </mxGeometry>
        </mxCell>
        <mxCell id="oi3M1zB1Oa0CDW2oKUUC-35" value="" style="endArrow=classic;html=1;exitX=1;exitY=1;exitDx=0;exitDy=0;entryX=1;entryY=0.5;entryDx=0;entryDy=0;" edge="1" parent="1" source="oi3M1zB1Oa0CDW2oKUUC-29" target="oi3M1zB1Oa0CDW2oKUUC-6">
          <mxGeometry width="50" height="50" relative="1" as="geometry">
            <mxPoint x="480" y="880" as="sourcePoint" />
            <mxPoint x="840" y="260" as="targetPoint" />
            <Array as="points">
              <mxPoint x="450" y="840" />
              <mxPoint x="840" y="840" />
              <mxPoint x="840" y="315" />
            </Array>
          </mxGeometry>
        </mxCell>
        <mxCell id="oi3M1zB1Oa0CDW2oKUUC-36" value="&amp;nbsp;Ja&amp;nbsp;" style="edgeLabel;html=1;align=center;verticalAlign=middle;resizable=0;points=[];" vertex="1" connectable="0" parent="oi3M1zB1Oa0CDW2oKUUC-35">
          <mxGeometry x="-0.6475" y="2" relative="1" as="geometry">
            <mxPoint x="-10" y="2" as="offset" />
          </mxGeometry>
        </mxCell>
        <mxCell id="oi3M1zB1Oa0CDW2oKUUC-37" value="Hoeveel &lt;br&gt;&quot;levens&quot; over?" style="rhombus;whiteSpace=wrap;html=1;fillColor=#FFF08C;" vertex="1" parent="1">
          <mxGeometry x="180" y="383.75" width="100" height="102.5" as="geometry" />
        </mxCell>
        <mxCell id="oi3M1zB1Oa0CDW2oKUUC-38" value="Meer dan 0" style="endArrow=classic;html=1;entryX=0;entryY=0.5;entryDx=0;entryDy=0;exitX=1;exitY=0.5;exitDx=0;exitDy=0;" edge="1" parent="1" source="oi3M1zB1Oa0CDW2oKUUC-37" target="oi3M1zB1Oa0CDW2oKUUC-8">
          <mxGeometry width="50" height="50" relative="1" as="geometry">
            <mxPoint x="300" y="440" as="sourcePoint" />
            <mxPoint x="350" y="390" as="targetPoint" />
            <Array as="points" />
            <mxPoint as="offset" />
          </mxGeometry>
        </mxCell>
        <mxCell id="oi3M1zB1Oa0CDW2oKUUC-39" value="" style="endArrow=classic;html=1;exitX=0;exitY=0.5;exitDx=0;exitDy=0;entryX=0.5;entryY=0;entryDx=0;entryDy=0;" edge="1" parent="1" source="oi3M1zB1Oa0CDW2oKUUC-37" target="oi3M1zB1Oa0CDW2oKUUC-40">
          <mxGeometry width="50" height="50" relative="1" as="geometry">
            <mxPoint x="140" y="420" as="sourcePoint" />
            <mxPoint x="80" y="630" as="targetPoint" />
            <Array as="points">
              <mxPoint x="80" y="435" />
            </Array>
          </mxGeometry>
        </mxCell>
        <mxCell id="oi3M1zB1Oa0CDW2oKUUC-41" value="Minder dan 0" style="edgeLabel;html=1;align=center;verticalAlign=middle;resizable=0;points=[];" vertex="1" connectable="0" parent="oi3M1zB1Oa0CDW2oKUUC-39">
          <mxGeometry x="0.078" relative="1" as="geometry">
            <mxPoint y="26" as="offset" />
          </mxGeometry>
        </mxCell>
        <mxCell id="oi3M1zB1Oa0CDW2oKUUC-40" value="Speler heeft verloren. Game over!&amp;nbsp;" style="rounded=0;whiteSpace=wrap;html=1;fillColor=#E6B8E6;" vertex="1" parent="1">
          <mxGeometry x="20" y="630" width="120" height="70" as="geometry" />
        </mxCell>
        <mxCell id="oi3M1zB1Oa0CDW2oKUUC-42" value="" style="endArrow=classic;html=1;entryX=0;entryY=0.5;entryDx=0;entryDy=0;" edge="1" parent="1" target="oi3M1zB1Oa0CDW2oKUUC-29">
          <mxGeometry width="50" height="50" relative="1" as="geometry">
            <mxPoint x="80" y="700" as="sourcePoint" />
            <mxPoint x="130" y="650" as="targetPoint" />
            <Array as="points">
              <mxPoint x="80" y="780" />
            </Array>
          </mxGeometry>
        </mxCell>
      </root>
    </mxGraphModel>
  </diagram>
</mxfile>
